<svg xmlns="http://www.w3.org/2000/svg" viewBox="0 0 1911.45 1553.76"><defs><style>.cls-1,.cls-2{fill:#9c9efe;}.cls-1{opacity:0.4;}.cls-2,.cls-20{opacity:0.5;}.cls-3{fill:#ffb93e;}.cls-4{fill:#ffa412;}.cls-5{fill:#82b378;}.cls-20,.cls-6{fill:#e2810e;}.cls-7{fill:#ffb27d;}.cls-8{fill:#ed975d;}.cls-9{fill:#a9453d;}.cls-10{fill:#2c3a64;}.cls-11{fill:#2b478b;}.cls-12{fill:#233862;}.cls-13{fill:#1e3d70;}.cls-14{fill:#2a4e96;}.cls-15,.cls-16{fill:#ed9f4a;}.cls-15{opacity:0.2;}.cls-16{opacity:0.6;}.cls-17{fill:#f9ddbf;}.cls-18{fill:#f1a34f;}.cls-19{fill:#e5c1a1;}.cls-21{fill:#ed985f;}.cls-22{fill:#ed7d2b;}.cls-23{fill:#f99746;}.cls-24{fill:#2e3552;}</style></defs><g id="Layer_2" data-name="Layer 2"><g id="_Layer_" data-name="&lt;Layer&gt;"><ellipse class="cls-1" cx="692.15" cy="960.14" rx="692.15" ry="580.78"/><ellipse class="cls-1" cx="1105.26" cy="803.43" rx="843.57" ry="707.82" transform="translate(-259.06 727.7) rotate(-32.84)"/><ellipse class="cls-2" cx="827.25" cy="615.77" rx="570.96" ry="680.46" transform="translate(-169.79 879.26) rotate(-51.47)"/><path class="cls-3" d="M1034.93,993.27l14.11,2.32a6,6,0,0,1,2.91,1.31,5,5,0,0,1,1.66,2.57,4.1,4.1,0,0,1,.14.92,4.91,4.91,0,0,1,0,.85L1021.23,1198c-.42,2.53-3.07,4.25-6,3.91l-.28,0-14.11-2.32-.28,0c-2.84-.6-4.8-3.06-4.38-5.6l32.47-196.8a4.58,4.58,0,0,1,.65-1.65,5,5,0,0,1,2.41-1.9A6,6,0,0,1,1034.93,993.27Z"/><path class="cls-4" d="M1038.54,1093.12l-17.4,105.43c-.37,2.26-3,3.75-5.86,3.4l-.28,0-14.11-2.32-.28,0c-2.85-.58-4.83-2.83-4.46-5.09l15.26-92.49C1019,1101.69,1029.75,1099.92,1038.54,1093.12Z"/><rect class="cls-4" x="1036.72" y="1006.83" width="2.27" height="25.33" transform="translate(-137.1 1877.38) rotate(-80.62)"/><rect class="cls-4" x="1035.47" y="1014.4" width="2.27" height="25.33" transform="translate(-145.39 1882.8) rotate(-80.64)"/><rect class="cls-4" x="1033.97" y="1023.48" width="2.27" height="25.33" transform="translate(-155.87 1888.55) rotate(-80.62)"/><rect class="cls-4" x="1031.67" y="1037.39" width="2.27" height="25.33" transform="translate(-171.29 1898.26) rotate(-80.64)"/><rect class="cls-4" x="1029.25" y="1052.11" width="2.27" height="25.33" transform="translate(-187.81 1908.25) rotate(-80.64)"/><rect class="cls-4" x="1025.52" y="1074.67" width="2.27" height="25.33" transform="translate(-213.27 1923.34) rotate(-80.63)"/><rect class="cls-4" x="1022.04" y="1095.79" width="2.27" height="25.33" transform="matrix(0.16, -0.99, 0.99, 0.16, -237.17, 1937.37)"/><rect class="cls-4" x="1018.93" y="1114.66" width="2.27" height="25.33" transform="translate(-258.17 1950.43) rotate(-80.64)"/><rect class="cls-4" x="1037.91" y="999.62" width="2.27" height="25.33" transform="translate(-128.55 1873.13) rotate(-80.65)"/><rect class="cls-4" x="1038.69" y="994.86" width="2.27" height="25.33" transform="translate(-123.45 1869.57) rotate(-80.64)"/><rect class="cls-4" x="1039.45" y="990.26" width="2.27" height="25.33" transform="translate(-118.28 1866.47) rotate(-80.64)"/><path class="cls-4" d="M1028.47,998.53l25,4.11.23-1.4a4.91,4.91,0,0,0,0-.85l-24.82-4.08a4.31,4.31,0,0,0-.23.82Z"/><path class="cls-4" d="M1029.35,995.48l24.26,4a5,5,0,0,0-1.66-2.57l-20.19-3.32A5,5,0,0,0,1029.35,995.48Z"/><path class="cls-3" d="M1060.53,993.27l14.12,2.32a6,6,0,0,1,2.9,1.31,5.11,5.11,0,0,1,1.67,2.57,4.48,4.48,0,0,1,.08,1.77L1046.83,1198c-.42,2.53-3.06,4.25-5.95,3.91l-.28,0-14.11-2.32-.28,0c-2.84-.6-4.79-3.06-4.37-5.6l32.47-196.8a3.67,3.67,0,0,1,.22-.82,3.85,3.85,0,0,1,.43-.83,5,5,0,0,1,2.4-1.9A6,6,0,0,1,1060.53,993.27Z"/><path class="cls-4" d="M1064.14,1093.12l-17.4,105.43c-.37,2.26-3,3.75-5.86,3.4l-.28,0-14.11-2.32-.28,0c-2.84-.58-4.83-2.83-4.46-5.09L1037,1102C1044.61,1101.69,1055.36,1099.92,1064.14,1093.12Z"/><rect class="cls-4" x="1062.32" y="1006.83" width="2.27" height="25.33" transform="translate(-115.93 1902.3) rotate(-80.61)"/><rect class="cls-4" x="1061.07" y="1014.4" width="2.27" height="25.33" transform="matrix(0.16, -0.99, 0.99, 0.16, -123.69, 1908.42)"/><rect class="cls-4" x="1059.57" y="1023.48" width="2.27" height="25.33" transform="translate(-134.18 1914.17) rotate(-80.64)"/><rect class="cls-4" x="1057.28" y="1037.39" width="2.27" height="25.33" transform="translate(-150.09 1923.2) rotate(-80.62)"/><rect class="cls-4" x="1054.85" y="1052.11" width="2.27" height="25.33" transform="translate(-166.6 1933.18) rotate(-80.62)"/><rect class="cls-4" x="1051.13" y="1074.67" width="2.27" height="25.33" transform="translate(-191.83 1948.61) rotate(-80.63)"/><rect class="cls-4" x="1047.64" y="1095.79" width="2.27" height="25.33" transform="translate(-215.48 1963.01) rotate(-80.64)"/><rect class="cls-4" x="1044.53" y="1114.66" width="2.27" height="25.33" transform="translate(-236.73 1975.69) rotate(-80.64)"/><rect class="cls-4" x="1063.51" y="999.62" width="2.27" height="25.33" transform="translate(-107.6 1897.73) rotate(-80.62)"/><rect class="cls-4" x="1064.3" y="994.86" width="2.27" height="25.33" transform="translate(-102.02 1894.83) rotate(-80.64)"/><rect class="cls-4" x="1065.05" y="990.26" width="2.27" height="25.33" transform="translate(-96.58 1892.08) rotate(-80.65)"/><path class="cls-4" d="M1054.08,998.53l25,4.11.23-1.4a4.09,4.09,0,0,0,0-.85l-24.82-4.08a3.67,3.67,0,0,0-.22.82Z"/><path class="cls-4" d="M1055,995.48l24.26,4a5.11,5.11,0,0,0-1.67-2.57l-20.19-3.32A5,5,0,0,0,1055,995.48Z"/><path class="cls-3" d="M966.9,1182.19l0,14.31a6,6,0,0,1-.83,3.07,5,5,0,0,1-2.27,2.06,3.92,3.92,0,0,1-.88.28,4,4,0,0,1-.85.09l-199.46-.48c-2.57,0-4.69-2.34-4.81-5.24,0-.09,0-.19,0-.28l0-14.3a2.81,2.81,0,0,1,0-.29c.13-2.9,2.25-5.22,4.83-5.21l199.45.47a4,4,0,0,1,.85.09,4,4,0,0,1,.89.29,5.09,5.09,0,0,1,2.26,2.06A6.08,6.08,0,0,1,966.9,1182.19Z"/><path class="cls-4" d="M868.92,1201.78l-106.86-.26c-2.29,0-4.18-2.34-4.29-5.24,0-.09,0-.19,0-.28l0-14.3a2.81,2.81,0,0,1,0-.29c.12-2.9,2-5.22,4.31-5.21l93.73.22C857.33,1183.88,860.8,1194.2,868.92,1201.78Z"/><rect class="cls-4" x="928.82" y="1188.15" width="25.33" height="2.27" transform="translate(-250.25 2127.66) rotate(-89.85)"/><rect class="cls-4" x="921.14" y="1188.13" width="25.33" height="2.27" transform="translate(-257.64 2120.29) rotate(-89.87)"/><rect class="cls-4" x="911.94" y="1188.11" width="25.33" height="2.27" transform="translate(-267.07 2110.71) rotate(-89.85)"/><rect class="cls-4" x="897.84" y="1188.08" width="25.33" height="2.27" transform="translate(-280.84 2096.93) rotate(-89.87)"/><rect class="cls-4" x="882.92" y="1188.04" width="25.33" height="2.27" transform="translate(-295.68 2081.98) rotate(-89.87)"/><rect class="cls-4" x="860.06" y="1187.99" width="25.33" height="2.27" transform="translate(-318.44 2059.06) rotate(-89.87)"/><rect class="cls-4" x="838.65" y="1187.94" width="25.33" height="2.27" transform="translate(-339.75 2037.6) rotate(-89.87)"/><rect class="cls-4" x="819.53" y="1187.89" width="25.33" height="2.27" transform="translate(-358.77 2018.44) rotate(-89.87)"/><rect class="cls-4" x="936.12" y="1188.17" width="25.33" height="2.27" transform="translate(-242.73 2135.31) rotate(-89.87)"/><rect class="cls-4" x="940.95" y="1188.18" width="25.33" height="2.27" transform="translate(-237.64 2140.5) rotate(-89.88)"/><rect class="cls-4" x="945.61" y="1188.19" width="25.33" height="2.27" transform="translate(-233.29 2144.81) rotate(-89.87)"/><path class="cls-4" d="M960.67,1176.67l0,25.32H962a4,4,0,0,0,.85-.09l0-25.15a4,4,0,0,0-.85-.09Z"/><path class="cls-4" d="M963.82,1177.05l-.05,24.58a5,5,0,0,0,2.27-2.06l0-20.46A5.09,5.09,0,0,0,963.82,1177.05Z"/><path class="cls-3" d="M945.62,1156.82l0,14.3a5.92,5.92,0,0,1-.83,3.07,5,5,0,0,1-2.27,2.06,3.92,3.92,0,0,1-.88.28,4,4,0,0,1-.85.09l-199.46-.47c-2.57,0-4.68-2.34-4.81-5.24,0-.1,0-.19,0-.29l0-14.3a2.53,2.53,0,0,1,0-.28c.13-2.91,2.25-5.23,4.83-5.22l199.45.47.38,0,.17,0,.18,0,.12,0a4,4,0,0,1,.89.29l.12.06.12.06.25.13.14.09.12.08.22.17.25.21a1.54,1.54,0,0,1,.19.17h0l.12.13c.12.13.24.27.35.41l.1.13.09.14.18.28A6,6,0,0,1,945.62,1156.82Z"/><path class="cls-4" d="M847.64,1176.4l-106.86-.26c-2.29,0-4.18-2.33-4.29-5.23,0-.1,0-.19,0-.29l0-14.3a2.53,2.53,0,0,1,0-.28c.12-2.91,2-5.23,4.31-5.22l93.73.22c0,.21.09.41.13.62C836.24,1159.07,839.74,1169,847.64,1176.4Z"/><rect class="cls-4" x="907.54" y="1162.77" width="25.33" height="2.27" transform="translate(-245.85 2081.39) rotate(-89.87)"/><rect class="cls-4" x="899.86" y="1162.76" width="25.33" height="2.27" transform="translate(-253.49 2073.69) rotate(-89.87)"/><rect class="cls-4" x="890.66" y="1162.73" width="25.33" height="2.27" transform="translate(-262.65 2064.47) rotate(-89.87)"/><rect class="cls-4" x="876.56" y="1162.7" width="25.33" height="2.27" transform="translate(-276.69 2050.33) rotate(-89.87)"/><rect class="cls-4" x="861.64" y="1162.66" width="25.33" height="2.27" transform="translate(-291.3 2035.7) rotate(-89.88)"/><rect class="cls-4" x="838.78" y="1162.61" width="25.33" height="2.27" transform="translate(-314.54 2012.11) rotate(-89.85)"/><rect class="cls-4" x="817.37" y="1162.56" width="25.33" height="2.27" transform="translate(-335.6 1991) rotate(-89.87)"/><rect class="cls-4" x="798.25" y="1162.51" width="25.33" height="2.27" transform="translate(-354.41 1972.15) rotate(-89.88)"/><rect class="cls-4" x="914.84" y="1162.79" width="25.33" height="2.27" transform="translate(-238.58 2088.71) rotate(-89.87)"/><rect class="cls-4" x="919.67" y="1162.8" width="25.33" height="2.27" transform="translate(-233.78 2093.54) rotate(-89.87)"/><rect class="cls-4" x="924.33" y="1162.81" width="25.33" height="2.27" transform="translate(-229.14 2098.21) rotate(-89.87)"/><path class="cls-4" d="M939.39,1151.29l0,25.33h1.42a4,4,0,0,0,.85-.09l0-25.15a4,4,0,0,0-.85-.09Z"/><path class="cls-4" d="M942.54,1151.67l0,24.58a5,5,0,0,0,2.27-2.06l0-20.45A5.06,5.06,0,0,0,942.54,1151.67Z"/><path class="cls-3" d="M956,1132.14l0,14.3a6.06,6.06,0,0,1-.83,3.08,5,5,0,0,1-2.27,2,3.92,3.92,0,0,1-.88.28,4,4,0,0,1-.85.09l-199.46-.47a4.28,4.28,0,0,1-2.22-.63,5.59,5.59,0,0,1-2.57-4.37,1.94,1.94,0,0,1,0-.24v-.29l0-14.3a2.62,2.62,0,0,1,0-.28c.13-2.9,2.26-5.23,4.83-5.22l199.45.47a4.71,4.71,0,0,1,.85.09,4,4,0,0,1,.89.29,5.06,5.06,0,0,1,2.26,2.07A6,6,0,0,1,956,1132.14Z"/><path class="cls-4" d="M858,1151.72l-106.86-.25a3.6,3.6,0,0,1-2-.63,5.71,5.71,0,0,1-2.29-4.37,1.94,1.94,0,0,1,0-.24v-.29l0-14.3a2.62,2.62,0,0,1,0-.28c.12-2.9,2-5.23,4.31-5.22l93.73.22c1.45,7.26,4.77,17.22,12.42,24.73Z"/><path class="cls-3" d="M960.79,1106.82l0,14.3a6,6,0,0,1-.84,3.08,5.09,5.09,0,0,1-2.26,2.06,4.6,4.6,0,0,1-.89.28,3.45,3.45,0,0,1-.85.08l-199.45-.47c-2.58,0-4.69-2.34-4.82-5.24v-.28l0-14.31V1106a5.29,5.29,0,0,1,4.26-5.18,5.46,5.46,0,0,1,.57,0l199.46.48a4,4,0,0,1,.85.09,3.92,3.92,0,0,1,.88.28,5.06,5.06,0,0,1,2.26,2.07A6,6,0,0,1,960.79,1106.82Z"/><path class="cls-4" d="M862.81,1126.4,756,1126.15c-2.3,0-4.18-2.34-4.3-5.24v-.28l0-14.31V1106c.11-2.68,1.74-4.87,3.8-5.18a2.92,2.92,0,0,1,.51,0l93.74.22v0C851.23,1108.54,854.7,1118.84,862.81,1126.4Z"/><path class="cls-3" d="M946.18,1081.5l0,14.3a6.06,6.06,0,0,1-.83,3.08,5,5,0,0,1-2.27,2,4,4,0,0,1-.89.29l-.28,0-.15,0h-.42l-199.45-.47c-2.58,0-4.69-2.34-4.81-5.24a2.72,2.72,0,0,1,0-.28l0-14.31v-.28c0-.08,0-.16,0-.23a5.36,5.36,0,0,1,3.62-4.82l.15,0a4.06,4.06,0,0,1,1-.13l199.46.47c.15,0,.29,0,.43,0l.19,0h0l.22,0a4.54,4.54,0,0,1,.88.29,5,5,0,0,1,2.26,2.07A6.06,6.06,0,0,1,946.18,1081.5Z"/><path class="cls-4" d="M848.2,1101.08l-106.86-.25c-2.29,0-4.18-2.34-4.29-5.24a2.72,2.72,0,0,1,0-.28l0-14.31v-.28c0-.08,0-.16,0-.23a5.27,5.27,0,0,1,3.35-4.86l.18,0a3.25,3.25,0,0,1,.77-.09l93.73.22a1.16,1.16,0,0,0,0,.18c1.5,7.43,5,17.63,13,25.14Z"/><path class="cls-3" d="M945.8,1056.35l0,14.3a6.06,6.06,0,0,1-.84,3.08,5.07,5.07,0,0,1-2.27,2.06,4.19,4.19,0,0,1-.68.23h0l-.19,0a4.8,4.8,0,0,1-.85.08l-199.46-.47a4.21,4.21,0,0,1-.62,0l-.24,0a5.35,5.35,0,0,1-4-5.15v-.28l0-14.31c0-.09,0-.19,0-.28.14-2.9,2.26-5.22,4.83-5.22l199.46.48h.38l.16,0,.18,0,.13,0a3.92,3.92,0,0,1,.88.28l.12.06.13.06.24.14.26.17.23.16.24.21.19.18h0l.12.12a3.54,3.54,0,0,1,.35.42l.1.12.09.14.18.28A6,6,0,0,1,945.8,1056.35Z"/><path class="cls-4" d="M847.82,1075.93,741,1075.68h-.26l-.27,0c-2.06-.32-3.67-2.51-3.77-5.19v-.28l0-14.31c0-.09,0-.19,0-.28.12-2.9,2-5.22,4.31-5.22l93.73.22c0,.21.09.42.13.63,1.54,7.34,5,17.2,12.76,24.55Z"/><path class="cls-3" d="M956.15,1031.67l0,14.3a6.06,6.06,0,0,1-.84,3.08,5.09,5.09,0,0,1-2.26,2.06,4.6,4.6,0,0,1-.89.28,3.45,3.45,0,0,1-.85.08L751.83,1051a4.3,4.3,0,0,1-2.22-.63A5.61,5.61,0,0,1,747,1046a2.11,2.11,0,0,1,0-.25v-.28l0-14.31c0-.09,0-.18,0-.28.14-2.9,2.26-5.22,4.83-5.22l199.46.48a4,4,0,0,1,.85.09,3.92,3.92,0,0,1,.88.28,5.06,5.06,0,0,1,2.26,2.07A6,6,0,0,1,956.15,1031.67Z"/><path class="cls-4" d="M858.17,1051.25,751.32,1051a3.56,3.56,0,0,1-2-.63A5.74,5.74,0,0,1,747,1046a2.11,2.11,0,0,1,0-.25v-.28l0-14.31c0-.09,0-.18,0-.28.12-2.9,2-5.22,4.31-5.22l93.74.22c1.44,7.26,4.76,17.22,12.42,24.74Z"/><path class="cls-3" d="M972.5,1006.38l0,14.31a6,6,0,0,1-.83,3.07,5,5,0,0,1-2.27,2.06,3.92,3.92,0,0,1-.88.28,4,4,0,0,1-.85.09l-199.46-.48c-2.57,0-4.69-2.34-4.81-5.24,0-.09,0-.19,0-.28l0-14.3a2.81,2.81,0,0,1,0-.29,5.28,5.28,0,0,1,4.25-5.18,5.49,5.49,0,0,1,.58,0l199.45.47a4,4,0,0,1,.85.09,4.3,4.3,0,0,1,.88.28,5.09,5.09,0,0,1,2.27,2.07A6,6,0,0,1,972.5,1006.38Z"/><path class="cls-4" d="M874.52,1026l-106.86-.26c-2.29,0-4.18-2.34-4.29-5.24,0-.09,0-.19,0-.28l0-14.3a2.81,2.81,0,0,1,0-.29c.11-2.68,1.74-4.87,3.8-5.18a2.78,2.78,0,0,1,.51,0l93.73.23s0,0,0,0C862.94,1008.1,866.41,1018.4,874.52,1026Z"/><path class="cls-3" d="M946.36,981l0,14.31a6,6,0,0,1-.83,3.07,5,5,0,0,1-2.27,2.06,3.92,3.92,0,0,1-.88.28l-.28,0-.23,0h-.34L742,1000.36c-2.57,0-4.69-2.34-4.81-5.24,0-.09,0-.19,0-.28l0-14.3a2.81,2.81,0,0,1,0-.29c.13-2.9,2.25-5.22,4.83-5.22l199.45.48h.26a3.81,3.81,0,0,1,.59.08,4.6,4.6,0,0,1,.89.28c.14.07.28.14.41.22l.25.15,0,0,.24.17,0,0,.22.18a5.44,5.44,0,0,1,.48.48l.13.17s0,0,0,0a.43.43,0,0,1,.09.1,0,0,0,0,0,0,0,2.43,2.43,0,0,1,.14.2l.2.3A6,6,0,0,1,946.36,981Z"/><path class="cls-4" d="M848.38,1000.62l-106.86-.26c-2.29,0-4.18-2.34-4.29-5.24,0-.09,0-.19,0-.28l0-14.3a2.81,2.81,0,0,1,0-.29c.12-2.9,2-5.22,4.31-5.22l93.73.23.12.58c1.55,7.39,5,17.35,12.92,24.73Z"/><path class="cls-3" d="M961.07,956.32l0,14.31a6,6,0,0,1-.83,3.07,5,5,0,0,1-2.27,2.06,3.92,3.92,0,0,1-.88.28,4,4,0,0,1-.86.09l-199.45-.48a4.27,4.27,0,0,1-2.16-.59,5.57,5.57,0,0,1-2.64-4.42c0-.07,0-.15,0-.23s0-.18,0-.28l0-14.3a2.81,2.81,0,0,1,0-.29,5.26,5.26,0,0,1,4.25-5.17,3.69,3.69,0,0,1,.58,0l199.45.47a4,4,0,0,1,.85.09,3.79,3.79,0,0,1,.88.29,5,5,0,0,1,2.27,2.07A6,6,0,0,1,961.07,956.32Z"/><path class="cls-4" d="M863.09,975.91l-106.86-.26a3.47,3.47,0,0,1-1.92-.59,5.7,5.7,0,0,1-2.36-4.42c0-.07,0-.15,0-.23s0-.18,0-.28l0-14.3a2.81,2.81,0,0,1,0-.29c.11-2.68,1.74-4.87,3.8-5.18a4.12,4.12,0,0,1,.51,0l93.73.22v0c1.45,7.26,4.78,17.23,12.45,24.73Z"/><path class="cls-3" d="M946.45,931l0,14.31a6,6,0,0,1-.83,3.07,5,5,0,0,1-2.27,2.06,3.92,3.92,0,0,1-.88.28l-.28,0H942l-.16,0h-.25l-199.46-.48c-2.57,0-4.69-2.34-4.81-5.24a2.62,2.62,0,0,1,0-.28l0-14.31a2.72,2.72,0,0,1,0-.28c.13-2.9,2.26-5.22,4.83-5.22l199.45.48a4,4,0,0,1,.85.09,4.6,4.6,0,0,1,.89.28,5.06,5.06,0,0,1,2.26,2.07A6,6,0,0,1,946.45,931Z"/><path class="cls-4" d="M848.47,950.58l-106.86-.25c-2.29,0-4.18-2.34-4.29-5.24a2.62,2.62,0,0,1,0-.28l0-14.31a2.72,2.72,0,0,1,0-.28c.12-2.9,2-5.22,4.31-5.22l93.73.23c1.48,7.44,4.94,17.74,13,25.31Z"/><rect class="cls-4" x="917.89" y="1138.1" width="25.33" height="2.27" transform="translate(-210.85 2067.12) rotate(-89.87)"/><rect class="cls-4" x="910.22" y="1138.08" width="25.33" height="2.27" transform="translate(-218.24 2059.73) rotate(-89.88)"/><rect class="cls-4" x="901.01" y="1138.05" width="25.33" height="2.27" transform="translate(-227.64 2050.2) rotate(-89.87)"/><rect class="cls-4" x="886.91" y="1138.02" width="25.33" height="2.27" transform="translate(-241.68 2036.06) rotate(-89.87)"/><rect class="cls-4" x="871.99" y="1137.99" width="25.33" height="2.27" transform="translate(-256.53 2021.11) rotate(-89.87)"/><rect class="cls-4" x="849.13" y="1137.93" width="25.33" height="2.27" transform="translate(-279.52 1997.88) rotate(-89.85)"/><rect class="cls-4" x="827.72" y="1137.88" width="25.33" height="2.27" transform="matrix(0, -1, 1, 0, -300.37, 1977.04)"/><rect class="cls-4" x="808.6" y="1137.84" width="25.33" height="2.27" transform="translate(-319.62 1957.57) rotate(-89.87)"/><rect class="cls-4" x="925.19" y="1138.11" width="25.33" height="2.27" transform="translate(-203.58 2074.44) rotate(-89.87)"/><rect class="cls-4" x="930.02" y="1138.12" width="25.33" height="2.27" transform="translate(-198.49 2079.62) rotate(-89.88)"/><rect class="cls-4" x="934.68" y="1138.13" width="25.33" height="2.27" transform="translate(-194.14 2083.94) rotate(-89.87)"/><path class="cls-4" d="M949.74,1126.61l0,25.33h1.42a4,4,0,0,0,.85-.09l0-25.15a4,4,0,0,0-.85-.09Z"/><path class="cls-4" d="M952.89,1127l0,24.58a5,5,0,0,0,2.27-2l0-20.46A5.06,5.06,0,0,0,952.89,1127Z"/><rect class="cls-4" x="853.95" y="1112.61" width="25.33" height="2.27" transform="translate(-249.16 1977.76) rotate(-89.87)"/><rect class="cls-4" x="832.54" y="1112.56" width="25.33" height="2.27" transform="translate(-270.46 1956.3) rotate(-89.87)"/><rect class="cls-4" x="813.43" y="1112.52" width="25.33" height="2.27" transform="translate(-289.49 1937.14) rotate(-89.87)"/><path class="cls-4" d="M943.79,1126.6l.05-25.33h-2a1.67,1.67,0,0,0,.31,0l.05-25.15-.42-.06.05-24.55h.88l-.05,24.33a5.07,5.07,0,0,0,2.27-2.06l0-20.46a5,5,0,0,0-1.8-1.81h.8l0-25.33h-2.27l0,24.77a3.51,3.51,0,0,0-.72-.07h-1.42l-.05,25.33h.42l0,25.15h1.67l-.05,25.3Z"/><rect class="cls-4" x="934.84" y="1112.81" width="25.33" height="2.27" transform="translate(-168.65 2058.84) rotate(-89.87)"/><rect class="cls-4" x="939.5" y="1112.82" width="25.33" height="2.27" transform="matrix(0, -1, 1, 0, -164.29, 2063.18)"/><path class="cls-4" d="M954.56,1101.29l0,25.33h1.42a4.8,4.8,0,0,0,.85-.08l.05-25.15a4,4,0,0,0-.85-.09Z"/><path class="cls-4" d="M957.71,1101.67l0,24.59a5.09,5.09,0,0,0,2.26-2.06l0-20.46A5.06,5.06,0,0,0,957.71,1101.67Z"/><polygon class="cls-4" points="921.87 1101.26 921.91 1075.93 921.5 1075.93 921.54 1050.78 919.27 1050.78 919.23 1076.1 919.65 1076.1 919.6 1101.21 917.39 1101.2 917.34 1126.53 919.61 1126.54 919.66 1101.25 921.87 1101.26"/><polygon class="cls-4" points="905.04 1075.89 904.62 1075.89 904.67 1050.74 902.4 1050.73 902.35 1076.06 902.77 1076.06 902.73 1101.21 903.29 1101.21 903.24 1126.5 905.51 1126.5 905.55 1101.18 904.99 1101.17 905.04 1075.89"/><path class="cls-4" d="M943.09,1076.35l0,24.58a5,5,0,0,0,2.27-2l0-20.46A5,5,0,0,0,943.09,1076.35Z"/><polygon class="cls-4" points="890.56 1050.71 888.29 1050.7 888.25 1076.03 888.67 1076.03 888.62 1101.14 888.37 1101.14 888.32 1126.46 890.59 1126.47 890.64 1101.18 890.89 1101.18 890.93 1075.86 890.52 1075.85 890.56 1050.71"/><polygon class="cls-4" points="875.65 1050.67 873.38 1050.67 873.33 1075.99 873.75 1075.99 873.71 1101.14 875.97 1101.15 876.02 1075.82 875.6 1075.82 875.65 1050.67"/><polygon class="cls-4" points="852.78 1050.62 850.51 1050.61 850.47 1075.94 850.89 1075.94 850.84 1101.09 853.11 1101.09 853.15 1075.76 852.74 1075.76 852.78 1050.62"/><polygon class="cls-4" points="831.37 1050.57 829.1 1050.56 829.06 1075.89 829.48 1075.89 829.43 1101.04 831.7 1101.04 831.75 1075.71 831.33 1075.71 831.37 1050.57"/><polygon class="cls-4" points="812.25 1050.52 809.99 1050.52 809.94 1075.84 810.36 1075.84 810.32 1100.99 812.58 1101 812.63 1075.67 812.21 1075.67 812.25 1050.52"/><polygon class="cls-4" points="928.85 1050.8 926.58 1050.79 926.53 1076.12 926.95 1076.12 926.91 1101.23 926.59 1101.23 926.55 1126.56 928.81 1126.56 928.86 1101.27 929.17 1101.27 929.22 1075.95 928.8 1075.94 928.85 1050.8"/><polygon class="cls-4" points="933.67 1050.81 931.85 1050.81 931.89 1026.1 929.63 1026.1 929.58 1051.42 931.4 1051.43 931.36 1076.13 931.78 1076.13 931.73 1101.28 934 1101.28 934.04 1075.96 933.63 1075.96 933.67 1050.81"/><rect class="cls-4" x="910.4" y="1037.61" width="25.33" height="2.27" transform="translate(-117.87 1959.35) rotate(-89.86)"/><polygon class="cls-4" points="912.7 1050.76 911.6 1050.76 911.55 1076.09 911.97 1076.09 911.93 1101.23 914.2 1101.24 914.24 1075.91 913.82 1075.91 913.87 1051.39 914.97 1051.39 915.02 1026.06 912.75 1026.06 912.7 1050.76"/><rect class="cls-4" x="887.09" y="1037.56" width="25.33" height="2.27" transform="translate(-141.3 1935.7) rotate(-89.85)"/><rect class="cls-4" x="872.18" y="1037.52" width="25.33" height="2.27" transform="translate(-156.14 1920.75) rotate(-89.85)"/><rect class="cls-4" x="849.31" y="1037.47" width="25.33" height="2.27" transform="translate(-178.66 1898.11) rotate(-89.86)"/><rect class="cls-4" x="827.9" y="1037.42" width="25.33" height="2.27" transform="translate(-199.69 1877) rotate(-89.88)"/><rect class="cls-4" x="808.78" y="1037.37" width="25.33" height="2.27" transform="translate(-219 1857.49) rotate(-89.86)"/><polygon class="cls-4" points="936.88 1050.82 936.06 1050.82 936.02 1076.14 936.44 1076.14 936.39 1101.25 934.27 1101.24 934.22 1126.57 936.49 1126.58 936.53 1101.29 938.66 1101.3 938.7 1075.97 938.28 1075.97 938.33 1051.45 939.15 1051.45 939.2 1026.12 936.93 1026.11 936.88 1050.82"/><rect class="cls-4" x="934.86" y="1037.67" width="25.33" height="2.27" transform="translate(-93.49 1983.9) rotate(-89.87)"/><path class="cls-4" d="M952.14,1051.39l.05-25.15a4,4,0,0,0-.85-.09h-1.42l0,25.33h1.42A3.45,3.45,0,0,0,952.14,1051.39Z"/><path class="cls-4" d="M955.29,1049.05l0-20.46a5.06,5.06,0,0,0-2.26-2.07l0,24.59A5,5,0,0,0,955.29,1049.05Z"/><rect class="cls-4" x="934.42" y="1012.34" width="25.33" height="2.27" transform="translate(-68.6 1958.18) rotate(-89.87)"/><rect class="cls-4" x="903.44" y="1012.27" width="25.33" height="2.27" transform="translate(-99.44 1927.13) rotate(-89.87)"/><rect class="cls-4" x="888.52" y="1012.23" width="25.33" height="2.27" transform="translate(-114.28 1912.18) rotate(-89.87)"/><rect class="cls-4" x="865.66" y="1012.18" width="25.33" height="2.27" transform="matrix(0, -1, 1, 0, -137.07, 1889.23)"/><rect class="cls-4" x="844.25" y="1012.13" width="25.33" height="2.27" transform="translate(-158.35 1867.8) rotate(-89.87)"/><rect class="cls-4" x="825.13" y="1012.08" width="25.33" height="2.27" transform="translate(-177.15 1848.91) rotate(-89.88)"/><rect class="cls-4" x="941.72" y="1012.36" width="25.33" height="2.27" transform="matrix(0, -1, 1, 0, -61.33, 1965.51)"/><rect class="cls-4" x="946.55" y="1012.37" width="25.33" height="2.27" transform="translate(-56.53 1970.34) rotate(-89.87)"/><rect class="cls-4" x="951.21" y="1012.38" width="25.33" height="2.27" transform="translate(-51.89 1975.01) rotate(-89.87)"/><path class="cls-4" d="M966.27,1000.86l0,25.32h1.42a4,4,0,0,0,.85-.09l0-25.15a4,4,0,0,0-.85-.09Z"/><path class="cls-4" d="M969.42,1001.23l0,24.59a5,5,0,0,0,2.27-2.06l0-20.46A5.06,5.06,0,0,0,969.42,1001.23Z"/><polygon class="cls-4" points="919.78 1000.78 922.05 1000.79 922.1 975.46 919.89 975.46 919.93 950.75 922.14 950.76 922.19 925.43 919.92 925.43 919.88 950.71 917.66 950.71 917.62 976.04 919.83 976.04 919.78 1000.78"/><rect class="cls-4" x="900.6" y="986.97" width="25.33" height="2.27" transform="translate(-77.24 1898.76) rotate(-89.85)"/><rect class="cls-4" x="862.38" y="986.88" width="25.33" height="2.27" transform="translate(-115.01 1860.75) rotate(-89.87)"/><rect class="cls-4" x="839.52" y="986.83" width="25.33" height="2.27" transform="translate(-138.02 1837.53) rotate(-89.85)"/><rect class="cls-4" x="818.11" y="986.78" width="25.33" height="2.27" transform="translate(-159.08 1816.37) rotate(-89.87)"/><rect class="cls-4" x="798.99" y="986.73" width="25.33" height="2.27" transform="translate(-178.1 1797.21) rotate(-89.87)"/><polygon class="cls-4" points="927.09 1000.8 929.1 1000.81 929.05 1026.1 931.32 1026.1 931.36 1000.77 929.36 1000.77 929.4 975.48 929.09 975.48 929.13 950.78 929.45 950.78 929.49 925.45 927.23 925.44 927.18 950.73 926.87 950.73 926.82 976.06 927.13 976.06 927.09 1000.8"/><rect class="cls-4" x="920.41" y="987.02" width="25.33" height="2.27" transform="translate(-56.79 1919.41) rotate(-89.89)"/><path class="cls-4" d="M943.67,976.1h.39l.05-25.33h-2l.32,0,0-25.15a4,4,0,0,0-.85-.09h-1.41l-.05,25.33h1.42a1,1,0,0,0,.25,0l0,24.73h-1.67l0,25.28h-1.24l0-25.29h-2.13l0-24.71h2.12l.05-25.33h-2.27l-.05,25.28h-2.12l0,25.33h2.13l0,24.74h1.73l0,25.29h2.27l.05-25.29h.93a4,4,0,0,0,.85-.09l0-24.65h.89l0,24.37a5,5,0,0,0,2.27-2.06l0-20.46A5.18,5.18,0,0,0,943.67,976.1Z"/><rect class="cls-4" x="854.23" y="962.12" width="25.33" height="2.27" transform="translate(-98.39 1827.89) rotate(-89.87)"/><rect class="cls-4" x="832.82" y="962.07" width="25.33" height="2.27" transform="translate(-119.7 1806.43) rotate(-89.87)"/><rect class="cls-4" x="813.7" y="962.02" width="25.33" height="2.27" transform="translate(-138.72 1787.27) rotate(-89.87)"/><rect class="cls-4" x="935.12" y="962.31" width="25.33" height="2.27" transform="translate(-17.88 1908.97) rotate(-89.87)"/><rect class="cls-4" x="939.78" y="962.32" width="25.33" height="2.27" transform="translate(-13.24 1913.64) rotate(-89.87)"/><path class="cls-4" d="M954.83,950.8l0,25.32h1.42a4,4,0,0,0,.85-.09l0-25.15a4,4,0,0,0-.85-.09Z"/><path class="cls-4" d="M960.21,973.7l0-20.46a5.07,5.07,0,0,0-2.27-2.06l0,24.58A5,5,0,0,0,960.21,973.7Z"/><rect class="cls-4" x="900.7" y="936.94" width="25.33" height="2.27" transform="translate(-26.85 1849.24) rotate(-89.87)"/><polygon class="cls-4" points="905.31 925.39 903.05 925.39 903 950.71 903.56 950.72 903.51 975.42 902.96 975.42 902.91 1000.75 905.17 1000.75 905.22 976.01 905.78 976.01 905.83 950.68 905.27 950.68 905.31 925.39"/><polygon class="cls-4" points="888.9 950.64 888.64 950.64 888.6 975.97 888.85 975.97 888.8 1000.71 891.07 1000.72 891.12 975.39 890.87 975.39 890.91 950.68 891.16 950.69 891.21 925.36 888.94 925.35 888.9 950.64"/><rect class="cls-4" x="862.47" y="936.85" width="25.33" height="2.27" transform="translate(-64.89 1810.93) rotate(-89.87)"/><rect class="cls-4" x="839.61" y="936.8" width="25.33" height="2.27" transform="translate(-87.65 1788.01) rotate(-89.87)"/><rect class="cls-4" x="818.2" y="936.75" width="25.33" height="2.27" transform="translate(-109.2 1766.27) rotate(-89.85)"/><rect class="cls-4" x="799.08" y="936.7" width="25.33" height="2.27" transform="translate(-127.74 1747.67) rotate(-89.88)"/><rect class="cls-4" x="920.5" y="936.99" width="25.33" height="2.27" transform="matrix(0, -1, 1, 0, -7.42, 1868.81)"/><path class="cls-4" d="M943.37,925.85l0,24.59a5.07,5.07,0,0,0,2.27-2.06l0-20.46A5.06,5.06,0,0,0,943.37,925.85Z"/><path class="cls-3" d="M1009.82,993.38l14.09,2.5a6,6,0,0,1,2.88,1.35,5.08,5.08,0,0,1,1.64,2.59,4.73,4.73,0,0,1,.12.92,4.06,4.06,0,0,1-.06.85L993.5,1198c-.45,2.53-3.12,4.21-6,3.83l-.28,0-14.09-2.51-.27,0c-2.84-.64-4.76-3.13-4.31-5.66l35-196.36c0-.13.05-.26.08-.38l0-.15.06-.18a.61.61,0,0,1,0-.12,3.78,3.78,0,0,1,.43-.82,192547742175.22,192547742175.22,0,0,1,.16-.22l.17-.22.12-.12.1-.1.2-.2a2.43,2.43,0,0,1,.25-.2l.2-.16h0l.14-.1c.15-.09.31-.19.47-.27l.14-.07.15-.07.31-.13A6,6,0,0,1,1009.82,993.38Z"/><path class="cls-4" d="M1012.15,1093.27l-18.74,105.2c-.4,2.26-3,3.71-5.9,3.32l-.28,0-14.09-2.51-.27,0c-2.84-.62-4.8-2.89-4.4-5.15l16.44-92.28.64,0C993.11,1101.49,1003.53,1099.78,1012.15,1093.27Z"/><rect class="cls-4" x="1011.27" y="1006.98" width="2.27" height="25.33" transform="translate(-169.34 1837.01) rotate(-79.87)"/><rect class="cls-4" x="1009.93" y="1014.53" width="2.27" height="25.33" transform="translate(-177.68 1842.22) rotate(-79.89)"/><rect class="cls-4" x="1008.31" y="1023.59" width="2.27" height="25.33" transform="translate(-187.66 1848.49) rotate(-79.91)"/><rect class="cls-4" x="1005.84" y="1037.48" width="2.27" height="25.33" transform="translate(-203.61 1857.15) rotate(-79.89)"/><rect class="cls-4" x="1003.22" y="1052.16" width="2.27" height="25.33" transform="translate(-220.05 1866.95) rotate(-79.9)"/><rect class="cls-4" x="999.21" y="1074.67" width="2.27" height="25.33" transform="translate(-245.76 1881.2) rotate(-79.89)"/><rect class="cls-4" x="995.46" y="1095.75" width="2.27" height="25.33" transform="translate(-269.1 1895.68) rotate(-79.92)"/><rect class="cls-4" x="992.1" y="1114.57" width="2.27" height="25.33" transform="translate(-291.02 1906.88) rotate(-79.88)"/><rect class="cls-4" x="1012.56" y="999.78" width="2.27" height="25.33" transform="translate(-160.97 1832.69) rotate(-79.89)"/><rect class="cls-4" x="1013.4" y="995.03" width="2.27" height="25.33" transform="translate(-155.38 1829.91) rotate(-79.91)"/><rect class="cls-4" x="1014.22" y="990.45" width="2.27" height="25.33" transform="translate(-150.41 1826.63) rotate(-79.89)"/><path class="cls-4" d="M1003.3,998.56l24.94,4.43.25-1.4a4.06,4.06,0,0,0,.06-.85l-24.77-4.4a4.63,4.63,0,0,0-.23.83Z"/><path class="cls-4" d="M1004.22,995.52l24.2,4.3a5,5,0,0,0-1.63-2.59l-20.14-3.58A5,5,0,0,0,1004.22,995.52Z"/><path class="cls-5" d="M1485.19,1201.76h-85.71c-4.59-3.89,3.18-12.74,11.3-13.34,3.53-.26,8,.48,13.08,1.55,1.18-15.66,7.92-86.09,33.3-83.26,28.55,3.17,0,31-8.07,47.5-6,12.21-12.28,29.72-15.16,38,2.32.5,4.72,1,7.17,1.44,3.78-11.61,17.86-50.69,35.76-48.41,21,2.67,12.57,18.33-2.33,27.63-10.93,6.84-24.35,16.56-30.73,21.25a90.77,90.77,0,0,0,16.77,1.35C1475.25,1195.11,1482.41,1199.44,1485.19,1201.76Z"/><path class="cls-5" d="M367.61,1198.92c-3.41-5.35-13.65-19.23-27.3-17.39-14.87,2,16.42,11.8,26,17.43a15.81,15.81,0,0,1-5.3-.62c-6.4-2.28-17.37,2.09-20.88,3.63h61a9.67,9.67,0,0,0-4.36-5.58c-1-.61-3-.69-5.61-.5,3.62-4.27,6.14-17.92-3.95-14.41-7.37,2.57-7.35,10.91-6.63,15.84-1.57.25-3.16.5-4.73.73-3-15.47-13.77-60.81-35.53-62-22.06-1.23,18.71,47,32.28,62.45C370.83,1198.69,369.16,1198.84,367.61,1198.92Z"/><circle class="cls-6" cx="910.04" cy="751.78" r="87.79" transform="translate(-265.04 863.69) rotate(-45)"/><path class="cls-3" d="M980.22,713.09a87.79,87.79,0,1,0-34.5,119.27A87.79,87.79,0,0,0,980.22,713.09Z"/><path class="cls-4" d="M904,836.36a80,80,0,1,1,38.48-9.93A80.06,80.06,0,0,1,904,836.36Zm-.24-155.23a75.46,75.46,0,1,0,21,3A74.74,74.74,0,0,0,903.73,681.13Z"/><path class="cls-4" d="M924.69,771.4a13.35,13.35,0,0,0-2.41-4A9.71,9.71,0,0,0,918.7,765a18.81,18.81,0,0,0-5.11-1.14,48.41,48.41,0,0,0-7,0,124.54,124.54,0,0,1-12.82,0,39.58,39.58,0,0,1-10.66-1.93,23.44,23.44,0,0,1-8.37-4.9A26.4,26.4,0,0,1,867,738.45a22.19,22.19,0,0,1,2.1-9,27.85,27.85,0,0,1,5.73-8A37.38,37.38,0,0,1,883.9,715l-5-12.3,9.9-4,5.06,12.48a33.33,33.33,0,0,1,10.8-1.11,25.12,25.12,0,0,1,17.53,8.65,33.16,33.16,0,0,1,5.85,9.71l-17.88,7.26q-2.8-6.89-7.25-9.07a11.3,11.3,0,0,0-9.59-.09,14.28,14.28,0,0,0-4.48,2.72,9.74,9.74,0,0,0-2.45,3.47,9,9,0,0,0-.62,4,13.34,13.34,0,0,0,1,4.22,12.26,12.26,0,0,0,2.18,3.6,9.05,9.05,0,0,0,3.43,2.32,18.11,18.11,0,0,0,5.15,1.13,63.75,63.75,0,0,0,7.3.15q6.92-.19,12.79.16a40.39,40.39,0,0,1,10.65,2,23.64,23.64,0,0,1,8.38,4.94,23.93,23.93,0,0,1,5.88,8.86,24.27,24.27,0,0,1,1.92,9.8,22.08,22.08,0,0,1-2.16,9,26.87,26.87,0,0,1-5.85,7.87,40.18,40.18,0,0,1-9.18,6.4l4.64,11.44-9.84,4-4.62-11.38a45.15,45.15,0,0,1-10.84,1.79,28.36,28.36,0,0,1-10.53-1.52,25.56,25.56,0,0,1-9.27-5.78,30.86,30.86,0,0,1-7-10.94l17.88-7.26a19.23,19.23,0,0,0,3.91,6.35,12.31,12.31,0,0,0,4.84,3.12,11.9,11.9,0,0,0,5.3.53,20.33,20.33,0,0,0,5.24-1.36,17.39,17.39,0,0,0,4.81-2.82,11.33,11.33,0,0,0,2.84-3.57,9,9,0,0,0,.95-4A11.1,11.1,0,0,0,924.69,771.4Z"/><path class="cls-7" d="M990.7,704.53c-3.67-2.59-12-8.3-12.43-7-.32.92.13,2.47,1.13,4.09-5-1.89-10.16-3.12-22.25-.8a9,9,0,0,0-5.95,3.92c-1.24,1.92-1.7,4.32,1.39,6.24,6.17,3.84,4.38,1.54,13,7.13s19.08,7,25.36,3.09l8.42-1.4,1-13.85S995.58,705.34,990.7,704.53Z"/><path class="cls-7" d="M1211.39,588.34s-19.86,23.56-45.14,13.7c0,0-5.44-13.15-5.52-22.85,0-1.19,0-2.35,0-3.45-.13-10.92-.5-17-.5-17h0c1.15-.48,38.66-15.88,38.62-14.6C1198.19,573.63,1211.39,588.34,1211.39,588.34Z"/><path class="cls-8" d="M1195.07,551.13c-3.62,6.71-16,19.82-34.38,24.61-.13-10.92-.5-17-.5-17h0C1161.25,558.41,1196.14,549.16,1195.07,551.13Z"/><path class="cls-7" d="M1152.33,557.56s42.18,9.91,48-16.44,15.1-42.83-11.59-50.28-34.13,1.46-38.19,9.79S1141.51,554.3,1152.33,557.56Z"/><path class="cls-9" d="M1198.84,548.3c.57.37,9.65,3.15,26.83-31.08,2.7-5.38,4.54-17-1.75-27.27s-28.59-18.35-47.11-21.87-23,6.91-27.34,17.39c-4.58,11-17.81,20-17.81,20,16,8.92,35.22-3.84,41.89-1.74s9,12.6,9.52,16,1.27,6.17,9.65,3.16,3.79,11.88,2.45,14.72C1195.17,537.63,1194,545.22,1198.84,548.3Z"/><path class="cls-10" d="M1307.48,1205.62H1333c5.36,0,11.3-5.36,12.79-15.17s12.5-15.17,14.88-23.21-9.82-19.34-9.82-19.34l-2-2.62-2.12-2.73-20.23,4.75s-.5,4.82-.81,11a136.89,136.89,0,0,0-.08,14c.59,10.71-3,22.24-12.52,24.33S1307.48,1205.62,1307.48,1205.62Z"/><path class="cls-10" d="M1129.7,1205.62h67.69a6.34,6.34,0,0,0,1.44-.41c4.52-2.27,3.1-19.57,2.56-24.92-.1-1-.18-1.57-.18-1.57s-23.8-19-27.08-4.46c-.1.46-.22.9-.35,1.34h0c-4.13,13.64-22.6,19.83-33.27,21.56C1132.36,1198.5,1130.24,1203.25,1129.7,1205.62Z"/><path class="cls-11" d="M1143.35,815.27s3.61,45.1,7.86,99.32c5.77,73.64,12.72,164.1,13.4,181.24,1.19,29.76,6,77.36,6,77.36s11.3,11.31,33.92,6.54c0,0,20.15-68,25.91-139.85.09-1.17.18-2.36.26-3.55C1236,963.14,1244.35,809,1244.35,809Z"/><path class="cls-12" d="M1143.35,815.27s3.61,45.1,7.86,99.32l79.19,125.29c.09-1.17.18-2.36.26-3.55C1236,963.14,1244.35,809,1244.35,809Z"/><path class="cls-11" d="M1159.85,820.63s65.16,163.34,108,240.1,56.23,98.18,56.23,98.18,24.55-9.82,26.78-16.51c0,0-16.38-148.19-45.07-184.32-16.21-20.41-35.26-81.67-36.15-103.09s-5.8-63.82-5.8-63.82Z"/><path class="cls-7" d="M1308.45,791l.68,10.5s-6.92,18.67,12.49,28.24c0,0,8.31,3.35,8.64-3.12s-.72-4,0-13.14-2.9-17.72-8.93-20.62l-4.94-5.71Z"/><path class="cls-13" d="M1316,798.6c-7.21,2.31-8.37,1.79-8.37,1.79s-35.1-63.91-38.66-69.76S1194.47,659,1194.47,659l18.24-68s80.73,104.53,89.44,119.53c14.41,24.79,22.85,82.36,22.85,82.36A21.15,21.15,0,0,1,1316,798.6Z"/><path class="cls-14" d="M1129.59,685.67c.25,14,1.06,29.67,2.16,45.62.07.94.13,1.89.2,2.83.7,9.88,1.46,19.78,2.33,29.44.35,3.87.72,7.7,1.11,11.46l.06.5c0,1.41.2,2.94.36,4.33,3.55,36.17,7.28,64.74,8,65.18a4,4,0,0,0,2.77.71c9.49-1.19,37.79,1,61-4.08,19.55-4.13,36.38-11.94,54.22-22.48,2.37-1.4,7.77-5.11,7.33-7.88-.44-3-1.23-7.45-2.24-13-3.52-19.24-9.59-52.33-11.66-91.06-.4-7.21-1-14.34-1.75-21.34a323.32,323.32,0,0,0-9.44-51c-8-28.61-19.62-50.51-34.27-59.08-1.91-1.07-12.21,5.48-21.66,11.55a41.69,41.69,0,0,1-26.87,6.36l-7.87,8.71c-9.53,11.08-19.68,25.82-22.45,46.79-.21,1.55-.38,3.19-.53,4.94A305.45,305.45,0,0,0,1129.59,685.67Z"/><path class="cls-13" d="M1129.59,685.67c.25,14,1.06,29.67,2.16,45.62.07.94.13,1.89.2,2.83,54.18-33.91,62.52-96,62.52-96-26.65,1.17-47.82,7.3-64.14,16.06A305.45,305.45,0,0,0,1129.59,685.67Z"/><path class="cls-14" d="M992.7,712.38c-.56-8,3.6-9.37,3.6-9.37s81.69-14.8,88.63-17,66.33-63.95,66.33-63.95,22.76-25.67,41.39-20c16.2,4.92,22.53,17.55,24.68,29.59a35.45,35.45,0,0,1-16.46,36.39c-27.88,17.1-83.69,50.78-96.83,54.64-29.25,8.57-107.85.69-107.85.69A25.44,25.44,0,0,1,992.7,712.38Z"/><path class="cls-15" d="M1088.82,869.28v303.64a32.29,32.29,0,0,1-32.2,32.2H744.51a32.43,32.43,0,0,1-7.87-1,33,33,0,0,1-14.3-7.67,33.38,33.38,0,0,1-7.05-9.16l-.28-.56a32.49,32.49,0,0,1-3.34-12.3c-.06-.75-.08-1.5-.08-2.27v-301a49.83,49.83,0,0,1,23.15-42l0,0A43.14,43.14,0,0,0,752.68,780h295.05a43.15,43.15,0,0,0,16.43,48.31h0c.75.52,1.5,1,2.28,1.49h0A46.3,46.3,0,0,1,1088.82,869.28Z"/><path class="cls-15" d="M1088.82,869.28v303.64a32.31,32.31,0,0,1-29.93,32.12c-.75.06-1.51.08-2.27.08H919.19a33,33,0,0,1-32.92-32.92v-301a49.81,49.81,0,0,1,23.16-42A43.14,43.14,0,0,0,927.36,780h120.37a43.18,43.18,0,0,0,18.72,49.8A46.3,46.3,0,0,1,1088.82,869.28Z"/><path class="cls-16" d="M1064.16,828.28c-9.64-5.77-51.39-26.23-157.56-25.36-121.61,1-170.33,25.57-171.82,26.34A43.14,43.14,0,0,0,752.68,780h295.05a43.15,43.15,0,0,0,16.43,48.31Z"/><rect class="cls-11" x="745.99" y="775.38" width="308.42" height="18.71" rx="2.47"/><path class="cls-12" d="M1054.41,777.84v13.77a2.47,2.47,0,0,1-2.46,2.47H937.07a2.48,2.48,0,0,1-2.47-2.47V777.84a2.48,2.48,0,0,1,2.47-2.46H1052A2.47,2.47,0,0,1,1054.41,777.84Z"/><path class="cls-17" d="M851.93,846s-7.82,11-15,11.17-18.08-5.11-18.08-5.11-6.58-14.67-2.12-20.41a9.6,9.6,0,0,1,9.17,1.5,14.12,14.12,0,0,1,2.42,2.33,7.73,7.73,0,0,0,3.77,2.55c5.11,1.55,11.19-2.11,13.46,1.43a24.26,24.26,0,0,0,4,4.68A18.18,18.18,0,0,0,851.93,846Z"/><path class="cls-17" d="M750,925.47s27.65-67,77.41-68.27c0,0,45.94,5.1,48.49,68.27Z"/><path class="cls-18" d="M813.73,859.24s19.95,4.44,26.1,1.83c0,0,.93-8.34-7.47-7.17-5.75.8-9.49-2-11.7-3.08C817.55,849.23,812.9,855.75,813.73,859.24Z"/><path class="cls-19" d="M831.09,846.67c-1.28,1-5.19-13.49-5.19-13.49a14.12,14.12,0,0,1,2.42,2.33,7.73,7.73,0,0,0,3.77,2.55C832.1,838.48,832.33,845.74,831.09,846.67Z"/><path class="cls-19" d="M849.5,844.17c-.28.17-9.5,5.69-10.75,5.69s6.8-10.37,6.8-10.37A24.26,24.26,0,0,0,849.5,844.17Z"/><path class="cls-19" d="M777,906.75c-.51-.44,19.57-29.56,25.1-29.77s18,6.38,26.94,7.23,17.72-1.7,19.42,3.61S854.8,912,851.93,915,788,916.18,777,906.75Z"/><path class="cls-20" d="M754.6,1182.18q-2.4,1.26-4.83,2.41-2.31,1.34-4.71,2.6a128.18,128.18,0,0,1-22.72,9.3,33.38,33.38,0,0,1-7.05-9.16c-1.23.66-2.46,1.29-3.7,1.9V960.14a129.59,129.59,0,0,1,16.83,3.39c30.94,8.36,58.51,28.05,75.27,57C837,1078.09,815,1150.46,754.6,1182.18Z"/><path class="cls-6" d="M775.53,1011.52a124.9,124.9,0,1,0-49.08,169.68A124.89,124.89,0,0,0,775.53,1011.52Z"/><path class="cls-3" d="M721.6,1183.73q-2.31,1.41-4.69,2.73l-1.62.87c-1.23.66-2.46,1.29-3.7,1.9A124.9,124.9,0,0,1,596.32,967.7q2.4-1.34,4.83-2.53t4.76-2.24a124.76,124.76,0,0,1,37.49-10.08,124.92,124.92,0,0,1,78.2,230.88Z"/><path class="cls-4" d="M657.49,1192.22A114,114,0,1,1,712.26,1178,114.09,114.09,0,0,1,657.49,1192.22ZM563.61,1130a107,107,0,1,0-9.08-81.4A106.3,106.3,0,0,0,563.61,1130Z"/><path class="cls-4" d="M712.36,1089.24c-.24-.61-.51-1.21-.77-1.79a32.73,32.73,0,0,0-7.58-10.83,33.77,33.77,0,0,0-11.92-7,57.11,57.11,0,0,0-15.16-2.85q-8.35-.51-18.19-.24a86.46,86.46,0,0,1-10.39-.21,25.8,25.8,0,0,1-7.32-1.6,12.77,12.77,0,0,1-4.88-3.3,17.57,17.57,0,0,1-3.1-5.12,19,19,0,0,1-1.42-6,13,13,0,0,1,.89-5.64,13.93,13.93,0,0,1,3.48-4.94,20.36,20.36,0,0,1,6.38-3.87q7.3-3,13.64.12t10.31,12.91l25.45-10.33a47.73,47.73,0,0,0-8.33-13.81,35.66,35.66,0,0,0-24.94-12.3,47,47,0,0,0-15.36,1.57l-7.21-17.75L621.86,1002l7.1,17.5a52.91,52.91,0,0,0-12.93,9.2,39.61,39.61,0,0,0-8.15,11.36,31.6,31.6,0,0,0-3,12.84A37.64,37.64,0,0,0,616,1079.23a33.31,33.31,0,0,0,11.91,7A55.94,55.94,0,0,0,643,1089a176.16,176.16,0,0,0,18.24,0,68.6,68.6,0,0,1,9.93.07,26.11,26.11,0,0,1,7.27,1.61,13.81,13.81,0,0,1,5.09,3.46,18.63,18.63,0,0,1,3.43,5.66,15.71,15.71,0,0,1,1.21,6,12.73,12.73,0,0,1-1.36,5.75,16.06,16.06,0,0,1-4,5.07,24.34,24.34,0,0,1-6.83,4,29.68,29.68,0,0,1-7.47,1.94,17,17,0,0,1-7.53-.76,17.41,17.41,0,0,1-6.88-4.44,27.11,27.11,0,0,1-5.57-9l-25.44,10.33a44.18,44.18,0,0,0,10,15.56,36.2,36.2,0,0,0,13.18,8.22,40.49,40.49,0,0,0,15,2.16,63.65,63.65,0,0,0,15.43-2.55l6.57,16.19,14-5.68-6.61-16.27a56.91,56.91,0,0,0,13.06-9.12,38.71,38.71,0,0,0,7.89-10.29c.15-.3.3-.6.44-.9a31.26,31.26,0,0,0,3.07-12.77A34.42,34.42,0,0,0,712.36,1089.24Z"/><path class="cls-10" d="M563.81,637.37c.38-1.53-33.27,15.21-35,17.1C513.06,672,517.56,694.82,526.59,695c5.79.14,4.66,9.77,4.66,9.77l64.52-27.29S588,632.22,563.81,637.37Z"/><path class="cls-10" d="M571.75,640.91s2.31-25.14-25.77-25.14c0,0,8.51,2.31,12.91,6.93,0,0-17.91-10.52-37.4,5.64s-7.38,56.68-13.31,64.37-29,9.23-26.18,34.11,73.25,56,68.73,76.61c0,0,27.6-40.57,7.86-59.09,0,0,9.62,9.06,10.6,19.84,0,0,2.61-21-10.77-27.76-11.84-5.95-21.54-27.72-20.52-31.61S571.75,640.91,571.75,640.91Z"/><path class="cls-21" d="M546.26,759.14c-4.33-20.85-31.37-27.31-44.16-10.28a22.6,22.6,0,0,0-4.45,10.95c-2.92,23.67,34.92,120.07,40.34,128.8C547.86,904.5,606,959,606,959l10.71-6.49s-41.21-69.77-47.59-76.29C561.7,868.65,554.48,798.73,546.26,759.14Z"/><path class="cls-21" d="M601.89,952.52s15.63-10.26,21.54-9.6,23,5.59,23.25,8.1-19.08,4.09-20.37,5.47-14.4,10.12-19.14,7.38S601.89,952.52,601.89,952.52Z"/><path class="cls-11" d="M492.88,1184.33l-14-2S432,1145,425,1075.37a123.51,123.51,0,0,1-.34-21.52,3.78,3.78,0,0,0-.49-2.38v0c-1.5-2.3-5.24-8.07-10.31-16.27s-13.53-23.37-22.92-40.53c-16.93-30.88-36.63-67.82-43.39-79.59-21.54-37.5-11.16-62.71-11.16-62.71s60.08-5.94,76.55-20.34l5.93,9.14s13,57.63,12.4,57.89l1.95,6c10.28,31.71,22.09,71.34,28.54,103.62,3.62,18.16,5.53,34,4.5,44.76-.35,3.7.08,9.38,1.07,16.4C473.12,1111.17,492.88,1184.33,492.88,1184.33Z"/><path class="cls-12" d="M522.16,1202H463.92s-1.4-8.88,1.64-15.61c2.92-6.47,7.07-6.67.54-16.8,3.7,3.81,15.59,5.38,24,4.25,1,1.67,6.66,12.9,10.1,15.37C504,1192,521,1191,522.16,1202Z"/><path class="cls-12" d="M433.2,905c-5.09,28.06-17.1,74.76-42.28,89.62-16.93-30.88-36.63-67.82-43.39-79.59-21.54-37.5-11.16-62.71-11.16-62.71s60.08-5.94,76.55-20.34l5.93,9.14s13,57.63,12.4,57.89Z"/><path class="cls-22" d="M540,746.21s8.23,8.56,12,18.82c0,0-13.13,37.73-43.84,42.46C508.18,807.49,532.47,746.19,540,746.21Z"/><path class="cls-11" d="M392.35,856.68l.2-10.89c-21.7,2.73-74.84-25.94-74.84-25.94S295,835,291.9,878.08c-1.52,21.06-11.12,110.09-12.18,136.67-.39,9.64-.52,16.51-.56,19.26v0a3.74,3.74,0,0,1-.92,2.24,123.85,123.85,0,0,0-11.76,18c-33.12,61.62-15.8,145.35-15.8,145.35l7.69-2s28-86.8,46.31-124.34c3.1-6.37,5.93-11.32,8.29-14.19,6.88-8.36,14.13-22.56,21.29-39.64,13.52-32.3,26.64-74.91,36-107.91C370.93,911.74,392.35,856.68,392.35,856.68Z"/><path class="cls-7" d="M519.37,784c-35.49-8.15-12.82-58-10.76-57.13,4.92-1,15.71-9.63,25.37-26.49l1.31,1.13,21.79,19.11s-5,7.43-9.28,14.7c-3.31,5.7-6.12,11.32-5.68,13.24C543.88,749.92,528.83,786.15,519.37,784Z"/><path class="cls-21" d="M557.08,720.6s-5,7.42-9.28,14.71c-13.55-8.35-13.56-25.13-12.52-33.82Z"/><path class="cls-7" d="M557.68,730.17s-32.9-18.31-21.18-38.62S551.86,655.2,573.36,666s21.07,20.91,18.81,28.64S566.54,734.41,557.68,730.17Z"/><path class="cls-10" d="M597.73,682.82c-1.51-9-6.09-9.88-9.28-9.27-12.15-20.1-32-12.25-32-12.25a44.79,44.79,0,0,1-25.93,15.57s3.82,7.1,19.55,11.5c4.8,1.34,10.25.53,15.51-1.24a88.11,88.11,0,0,1-22.32,8.42c20.73,1.89,40.45-17.06,42.49-19.09,1,2.94,2.64,9.09,1.63,13.58-1.36,6.11-6.78,17.18-3.47,18.61C583.91,708.65,600,696.35,597.73,682.82Z"/><path class="cls-12" d="M297,1202H238.75s-1.39-8.88,1.65-15.61c2.91-6.47,7.48-9.4,6.39-17.22,3.7,3.81,9.73,8.07,18.15,6.94,1,1.67,6.66,10.63,10.11,13.1C278.85,1192,295.83,1191,297,1202Z"/><path class="cls-23" d="M523.54,823.5c-7.49,2.62-18,4-28.77,5.22-15.32,1.67-31.13,2.81-39.42,6.12-3,1.2-5,2.69-5.67,4.59-3.59,10.8-19.41,27.46-19.41,27.46-101.42-4.62-112.56-47-112.56-47C386,740.5,501.49,717.54,501.49,717.54s8.25-3.5,29,13c13.87,11,12.05,15.26,12.05,15.26S545.6,815.81,523.54,823.5Z"/><path class="cls-22" d="M494.77,828.72c-15.32,1.67-31.13,2.81-39.42,6.12-3.38-50.59,20.49-88.63,20.49-88.63S491.41,809.58,494.77,828.72Z"/><path class="cls-7" d="M510.53,736.42s-38.38,3.79-41.46,28.73,36.8,126.54,42.51,135.73C522,917.63,583.2,975,583.2,975l11.28-6.84s-43.42-73.52-50.15-80.4C533.78,877,523.53,745.06,510.53,736.42Z"/><path class="cls-23" d="M470.18,780.16c.1.57,35.42,11.54,58.15,0,0,0,4.87-52.45-22.27-49.6s-43.21,11.39-43.9,24.38S470.18,780.16,470.18,780.16Z"/><path class="cls-7" d="M579.71,967.75s13.77-12.65,19.72-13,23.63,1.8,24.25,4.25-18.17,7.11-19.23,8.68-12.57,12.3-17.7,10.36S579.71,967.75,579.71,967.75Z"/><rect class="cls-24" x="67.37" y="1201.76" width="1581.25" height="4.2" rx="2.1"/></g></g></svg>