<svg width="45" height="21" viewBox="0 0 45 21" fill="none" xmlns="http://www.w3.org/2000/svg">
<path d="M0.0746095 15V0.599999H2.16461V13.03H8.68461V15H0.0746095ZM15.0724 15.3C13.9924 15.3 13.0558 15.0567 12.2624 14.57C11.4691 14.0833 10.8558 13.4133 10.4224 12.56C9.99576 11.7 9.78242 10.71 9.78242 9.59C9.78242 8.46333 10.0024 7.47333 10.4424 6.62C10.8824 5.76 11.4991 5.09333 12.2924 4.62C13.0858 4.14 14.0124 3.9 15.0724 3.9C16.1524 3.9 17.0891 4.14333 17.8824 4.63C18.6758 5.11667 19.2891 5.78667 19.7224 6.64C20.1558 7.49333 20.3724 8.47667 20.3724 9.59C20.3724 10.7167 20.1524 11.71 19.7124 12.57C19.2791 13.4233 18.6658 14.0933 17.8724 14.58C17.0791 15.06 16.1458 15.3 15.0724 15.3ZM15.0724 13.33C16.1058 13.33 16.8758 12.9833 17.3824 12.29C17.8958 11.59 18.1524 10.69 18.1524 9.59C18.1524 8.46333 17.8924 7.56333 17.3724 6.89C16.8591 6.21 16.0924 5.87 15.0724 5.87C14.3724 5.87 13.7958 6.03 13.3424 6.35C12.8891 6.66333 12.5524 7.1 12.3324 7.66C12.1124 8.21333 12.0024 8.85667 12.0024 9.59C12.0024 10.7233 12.2624 11.63 12.7824 12.31C13.3024 12.99 14.0658 13.33 15.0724 13.33ZM27.0199 20.1C26.4399 20.1 25.8766 20.01 25.3299 19.83C24.7899 19.65 24.2966 19.3833 23.8499 19.03C23.4033 18.6833 23.0333 18.2533 22.7399 17.74L24.6699 16.76C24.9033 17.22 25.2366 17.5567 25.6699 17.77C26.1033 17.9833 26.5599 18.09 27.0399 18.09C27.6333 18.09 28.1399 17.9833 28.5599 17.77C28.9799 17.5633 29.2966 17.25 29.5099 16.83C29.7299 16.41 29.8366 15.89 29.8299 15.27V12.25H30.0799V4.2H31.9299V15.29C31.9299 15.5767 31.9199 15.85 31.8999 16.11C31.8799 16.37 31.8433 16.63 31.7899 16.89C31.6366 17.6167 31.3433 18.2167 30.9099 18.69C30.4833 19.1633 29.9366 19.5167 29.2699 19.75C28.6099 19.9833 27.8599 20.1 27.0199 20.1ZM26.8599 15.3C25.8533 15.3 24.9833 15.05 24.2499 14.55C23.5233 14.05 22.9599 13.37 22.5599 12.51C22.1666 11.6433 21.9699 10.67 21.9699 9.59C21.9699 8.50333 22.1699 7.53333 22.5699 6.68C22.9699 5.82 23.5366 5.14333 24.2699 4.65C25.0099 4.15 25.8866 3.9 26.8999 3.9C27.9199 3.9 28.7766 4.15 29.4699 4.65C30.1699 5.14333 30.6966 5.82 31.0499 6.68C31.4099 7.54 31.5899 8.51 31.5899 9.59C31.5899 10.67 31.4099 11.64 31.0499 12.5C30.6899 13.36 30.1599 14.0433 29.4599 14.55C28.7599 15.05 27.8933 15.3 26.8599 15.3ZM27.1499 13.41C27.8366 13.41 28.3966 13.2467 28.8299 12.92C29.2633 12.5933 29.5799 12.1433 29.7799 11.57C29.9799 10.9967 30.0799 10.3367 30.0799 9.59C30.0799 8.84333 29.9766 8.18333 29.7699 7.61C29.5699 7.03667 29.2566 6.59 28.8299 6.27C28.4099 5.95 27.8733 5.79 27.2199 5.79C26.5266 5.79 25.9566 5.96 25.5099 6.3C25.0633 6.64 24.7299 7.09667 24.5099 7.67C24.2966 8.24333 24.1899 8.88333 24.1899 9.59C24.1899 10.3033 24.2966 10.95 24.5099 11.53C24.7299 12.1033 25.0566 12.56 25.4899 12.9C25.9299 13.24 26.4833 13.41 27.1499 13.41ZM39.4279 15.3C38.3479 15.3 37.4112 15.0567 36.6179 14.57C35.8246 14.0833 35.2112 13.4133 34.7779 12.56C34.3512 11.7 34.1379 10.71 34.1379 9.59C34.1379 8.46333 34.3579 7.47333 34.7979 6.62C35.2379 5.76 35.8546 5.09333 36.6479 4.62C37.4412 4.14 38.3679 3.9 39.4279 3.9C40.5079 3.9 41.4446 4.14333 42.2379 4.63C43.0312 5.11667 43.6446 5.78667 44.0779 6.64C44.5112 7.49333 44.7279 8.47667 44.7279 9.59C44.7279 10.7167 44.5079 11.71 44.0679 12.57C43.6346 13.4233 43.0212 14.0933 42.2279 14.58C41.4346 15.06 40.5012 15.3 39.4279 15.3ZM39.4279 13.33C40.4612 13.33 41.2312 12.9833 41.7379 12.29C42.2512 11.59 42.5079 10.69 42.5079 9.59C42.5079 8.46333 42.2479 7.56333 41.7279 6.89C41.2146 6.21 40.4479 5.87 39.4279 5.87C38.7279 5.87 38.1512 6.03 37.6979 6.35C37.2446 6.66333 36.9079 7.1 36.6879 7.66C36.4679 8.21333 36.3579 8.85667 36.3579 9.59C36.3579 10.7233 36.6179 11.63 37.1379 12.31C37.6579 12.99 38.4212 13.33 39.4279 13.33Z" fill="#222328"/>
</svg>
